PathFileType	4	(X/Y/Z)	F:\MotionCapture\20160217\3\Generated_files\EMG_Fprce_test03-Dynamic.trc
DataRate	CameraRate	NumFrames	NumMarkers	Units	OrigDataRate	OrigDataStartFrame	OrigNumFrames
120.00	120.00	       5	39	mm	120.00	479	       766
Frame#	Time	Top.Head			Front.Head			Rear.Head			R.Shoulder			R.Offset			R.Elbow			R.Wrist			L.Shoulder			L.Elbow			L.Wrist			R.ASIS			L.ASIS			V.Sacral			R.Thigh			R.Knee			R.Shank			R.Ankle			R.Heel			R.Toe			L.Thigh			L.Knee			L.Shank			L.Ankle			L.Heel			L.Toe			R1			R2			R3			R4			R5			R6			R7			L1			L2			L3			L4			L5			L6			L7			V_Mid_ASIS			V_Pelvis_Origin			V_R.Hip_JC			V_L.Hip_JC			V_R.Knee_JC			V_L.Knee_JC			V_R.Ankle_JC			V_L.Ankle_JC			V_Mid_Hip			V_Mid_Shoulder			V_R.Hand			V_L.Hand			V_R.Toe_Offset_Static			V_L.Toe_Offset_Static			V_R.Toe_Offset			V_L.Toe_Offset			
		X1	Y1	Z1	X2	Y2	Z2	X3	Y3	Z3	X4	Y4	Z4	X5	Y5	Z5	X6	Y6	Z6	X7	Y7	Z7	X8	Y8	Z8	X9	Y9	Z9	X10	Y10	Z10	X11	Y11	Z11	X12	Y12	Z12	X13	Y13	Z13	X14	Y14	Z14	X15	Y15	Z15	X16	Y16	Z16	X17	Y17	Z17	X18	Y18	Z18	X19	Y19	Z19	X20	Y20	Z20	X21	Y21	Z21	X22	Y22	Z22	X23	Y23	Z23	X24	Y24	Z24	X25	Y25	Z25	X26	Y26	Z26	X27	Y27	Z27	X28	Y28	Z28	X29	Y29	Z29	X30	Y30	Z30	X31	Y31	Z31	X32	Y32	Z32	X33	Y33	Z33	X34	Y34	Z34	X35	Y35	Z35	X36	Y36	Z36	X37	Y37	Z37	X38	Y38	Z38	X39	Y39	Z39	

479	3.983	-2187.43481	200.52576	1703.70276	-2294.28638	165.21303	1622.02783	-2080.09473	216.84552	1634.24109	-2120.91382	381.24261	1396.65710	-2006.80420	102.90563	1254.79626	-2003.47546	470.21899	1097.58313	-2010.34436	505.74265	835.84119	-2170.39893	-21.29138	1406.36035	-2289.18066	-137.18497	1115.70886	-2519.27002	-82.71320	1009.38086	-2217.93994	310.50189	920.75372	-2212.66284	21.38260	918.65350	-1988.91370	171.90610	921.33569	-2369.36914	295.82907	601.57983	-2343.68848	332.83652	482.05908	-2414.41162	268.72977	260.26010	-2407.91431	334.75552	84.51207	-2356.82617	266.99014	38.62657	-2548.50635	324.73813	94.27649	-2195.83374	84.63271	589.01733	-2064.13892	41.69460	445.33780	-2038.93115	126.09806	311.12595	-1905.20471	74.10331	67.88228	-1838.09998	130.53387	59.21665	-2043.10718	85.06178	37.64539	-2587.14771	314.12405	116.26936	-2555.80933	290.23926	101.60432	-2467.95557	251.38054	89.66914	-2404.11646	242.57925	53.97828	-2382.14380	313.84705	46.45198	-2458.79688	349.73248	59.54350	-2517.56152	359.89005	74.24589	-2088.03979	109.99857	33.17771	-2055.01221	123.82411	42.31665	-1960.23181	165.52359	48.66242	-1876.88672	162.65765	54.99233	-1865.86499	89.55853	54.06859	-1938.71497	64.51537	34.20752	-2002.03088	51.07941	35.76452																																																	-2511.98315	284.43915	121.29844	539.30841	-682.78259	841.59760	
480	3.992	-2199.91577	201.52643	1701.16040	-2306.68994	166.15822	1619.26038	-2092.69580	218.01852	1631.85925	-2132.54224	382.83087	1394.37073	-2019.34631	103.69647	1252.29614	-2012.53394	470.93860	1095.89160	-2016.14258	506.37103	834.50348	-2181.97949	-20.16758	1403.35449	-2305.22900	-135.58589	1115.13037	-2537.50952	-79.74168	1014.69617	-2230.67334	311.60147	917.98956	-2224.04614	21.97277	916.21423	-2000.74670	173.53529	919.18689	-2380.05322	294.38388	598.12561	-2355.96021	331.97250	481.02722	-2434.80078	269.13934	261.41852	-2435.86230	336.72366	86.26710	-2386.18164	269.28009	37.18911	-2575.46631	327.12057	101.05315	-2204.26929	83.91319	586.67285	-2070.21826	41.87732	444.04129	-2043.19788	126.04990	310.05194	-1906.23962	75.57881	68.12009	-1838.48096	130.85258	61.61546	-2043.10730	85.00951	37.62094	-2613.62744	315.40820	124.24420	-2583.01416	291.89899	108.45700	-2495.49707	252.89301	92.61712	-2433.41650	244.14288	54.50511	-2412.10181	315.69449	46.88619	-2486.94189	350.20721	61.26928	-2545.29321	362.13419	80.53288	-2087.60229	110.54087	32.63581	-2055.10571	123.67266	42.34275	-1960.45300	165.47256	49.45169	-1877.71130	162.34930	57.18305	-1867.18005	91.59423	54.41159	-1938.79797	64.46214	34.37720	-2001.93726	51.07080	35.74197																																																	-1135.94714	-175.85974	322.90756	
481	4.000	-2212.39282	202.55266	1698.62964	-2319.13379	167.11185	1616.37109	-2105.39380	219.12027	1629.69409	-2143.82617	383.96063	1392.46265	-2029.39868	105.06025	1250.12012	-2021.87061	471.85831	1094.73511	-2023.75989	507.97974	833.40076	-2194.36426	-19.18836	1400.52979	-2320.94775	-133.96123	1114.21082	-2555.20190	-76.56468	1019.60236	-2243.27368	312.30664	915.33984	-2235.53467	22.77767	913.89319	-2012.00452	175.03911	916.99475	-2390.42896	292.82574	595.21594	-2368.48926	331.11774	479.15436	-2454.28052	269.49100	262.59149	-2461.00098	337.69128	86.41747	-2414.86694	270.04395	37.16037	-2601.42212	328.47870	108.06987	-2213.41992	82.92532	584.19836	-2076.90015	42.20839	442.92288	-2048.51587	125.86075	309.21109	-1906.28259	74.39201	70.46890	-1839.16431	130.86276	63.88253	-2043.31897	84.56824	37.99240	-2638.54517	317.13040	132.42159	-2608.75439	293.03247	115.08267	-2521.70850	254.12033	96.06583	-2460.51538	246.00023	55.82803	-2439.46606	317.38882	47.58114	-2513.53906	352.53909	65.32074	-2571.65283	363.59973	86.23685	-2088.47363	109.41943	33.19905	-2055.31152	123.54432	42.35759	-1960.62952	164.66792	50.07598	-1878.27380	162.72186	58.96940	-1867.39880	91.35996	57.00182	-1938.86267	64.28738	34.72956	-2001.98462	51.05050	35.66379																																																	-2565.14868	408.85291	52.68886	-1153.87476	-174.04613	317.91763	
482	4.008	-2225.00952	203.49858	1696.23279	-2331.60352	167.98814	1613.80115	-2117.87988	220.62946	1627.27454	-2155.62842	385.19815	1390.24353	-2042.98071	106.05385	1247.34302	-2031.12805	472.73285	1093.61145	-2030.90735	508.57312	832.11920	-2206.38940	-17.88340	1398.09961	-2335.91528	-132.06802	1113.10522	-2572.54224	-73.66047	1024.31067	-2256.13428	313.39966	913.00739	-2247.30737	23.40927	911.64703	-2025.27600	176.84140	914.85345	-2401.00269	291.10068	592.61377	-2380.52954	331.11469	477.87485	-2473.05396	269.94293	263.91736	-2486.07080	338.95416	88.55574	-2440.77393	270.69397	36.94128	-2624.44116	329.50613	113.84045	-2222.38550	82.51855	581.78900	-2084.05933	41.90172	442.27115	-2053.43384	125.60354	308.34467	-1907.21313	74.72912	71.66158	-1839.90210	130.84435	67.07763	-2043.36902	84.41216	38.07764	-2661.60938	318.52319	139.38612	-2632.46069	294.59576	121.56935	-2546.13647	255.38919	99.61302	-2486.48657	246.20807	57.60054	-2464.80664	317.92126	48.23674	-2539.42651	352.61771	68.08559	-2596.25903	364.09662	91.64436	-2088.47290	108.22408	32.44484	-2054.99243	123.68252	41.92757	-1961.66235	165.04294	51.85026	-1878.58301	163.06984	61.11438	-1867.98645	91.38960	58.93743	-1938.94006	64.18666	35.28328	-2002.13123	50.83807	35.68136																																																	-2590.39380	411.04990	56.17064	-2008.97363	236.28888	7.88774	-2424.34741	286.95035	513.07709	
483	4.017	-2237.65479	204.58273	1693.82556	-2343.79517	169.21179	1611.33508	-2129.94775	221.45953	1624.89063	-2167.27222	386.86801	1388.42505	-2053.93970	107.96774	1245.43030	-2041.03882	474.01569	1092.12268	-2039.24182	509.38150	831.02100	-2218.90332	-16.34298	1395.51550	-2351.27563	-130.25813	1112.49658	-2588.77563	-70.50966	1028.28125	-2269.21655	314.33179	910.82294	-2259.13257	24.05833	909.41815	-2038.95313	178.92818	912.64734	-2411.33618	289.67014	590.70129	-2393.11597	331.20459	476.54581	-2490.60352	270.32764	264.88837	-2508.71387	338.51657	90.63086	-2465.38770	270.68912	37.52407	-2647.34375	330.33496	118.55894	-2231.98950	81.61503	579.68341	-2091.33350	41.78880	441.37637	-2059.83911	125.65723	307.96027	-1908.10181	75.39587	73.21469	-1840.85535	130.81653	70.33823	-2043.42249	84.30962	38.00687	-2682.96265	319.51733	145.49214	-2654.07886	295.36313	127.03188	-2568.89038	255.98889	102.67422	-2510.11987	246.73624	58.79453	-2488.97778	317.83530	48.94734	-2562.48755	352.54782	70.37930	-2618.91113	364.95325	95.41660	-2088.52637	108.10044	32.40136	-2055.05908	123.48049	41.89767	-1962.30042	164.89885	52.95900	-1879.31702	162.70767	64.15621	-1868.47131	91.03732	62.25366	-1939.54822	64.01839	36.66288	-2002.27869	50.78676	35.65945																																																	-2010.09680	236.03319	10.54774	
